<svg width="338" height="152" viewBox="0 0 338 152" fill="none" xmlns="http://www.w3.org/2000/svg">
<path d="M184 37.4321C184 37.4321 176.768 36.1529 169.518 36.1529C162.268 36.1529 155.043 37.2518 155.043 37.2518L155 114.879C155 114.879 162.174 116.142 169.424 116.142C176.674 116.142 184 114.707 184 114.707V37.4321Z" fill="white"/>
<path d="M122 47.0424C122 47.0424 114.971 50.0317 110.5 52.0212C105.988 54.0286 99 57.2784 99 57.2784V93.0971C99 93.0971 105.977 96.6624 110.5 98.8411C114.961 100.99 122 104.182 122 104.182V47.0424Z" fill="white"/>
<path d="M217 47L230.129 52.5619L240 56.9981V93.0021L217 104V47Z" fill="white"/>
<path d="M9 73.555C168 167 170 167 329 73.555C170 -13 168 -13 9 73.555Z" stroke="white" stroke-width="16.5" stroke-miterlimit="10" stroke-linejoin="round"/>
</svg>